# xmcd
#
# Track frame offsets: 
#        150
#        20255
#        36534
#        57493
#        73512
#        89463
#        104905
#        124142
#        141677
#        157284
#        171073
#        184841
#        206355
#        223909
#
# Disc length: 3152 seconds
#
# Revision: 0
# Processed by: cddbd v1.4PL0 Copyright (c) Steve Scherf et al.
# Submitted via: ExactAudioCopy v0.90b4
#
DISCID=e40c4e0e
DTITLE=Gnadenlos Platt - Alle Mann anne Ruder!
DYEAR=2003
DGENRE=Folklore
TTITLE0=Helga
TTITLE1=Alle Mann anne Ruder
TTITLE2=Marie ick wull di
TTITLE3=Wein Girls und Sädisfäkschen
TTITLE4=Ick heff Sehnsucht
TTITLE5=Wenn ick na Hus kum
TTITLE6=Rollmops
TTITLE7=Malocht
TTITLE8=Ohne di
TTITLE9=Hee Scheff hür mol to
TTITLE10=Brennt din Schüün
TTITLE11=Nordischer Schiet
TTITLE12=Mek mi mol den Raschiwanda
TTITLE13=Ick bün dat Lustobjekt
EXTD=
EXTT0=
EXTT1=
EXTT2=
EXTT3=
EXTT4=
EXTT5=
EXTT6=
EXTT7=
EXTT8=
EXTT9=
EXTT10=
EXTT11=
EXTT12=
EXTT13=
PLAYORDER=
